<svg width="217" height="299" viewBox="0 0 217 299" fill="none" xmlns="http://www.w3.org/2000/svg">
<path d="M198.237 0H132.974H84.0263H18.7632C8.48421 0 0 8.49617 0 18.7896V84.1448V214.855V280.21C0 290.504 8.48421 299 18.7632 299H84.0263H132.974H198.237C208.516 299 217 290.504 217 280.21V214.855V84.1448V18.7896C217 8.49617 208.516 0 198.237 0ZM4.89474 18.7896C4.89474 11.1104 11.0947 4.90164 18.7632 4.90164H55.8C32.1421 13.3978 13.3789 32.1874 4.89474 55.8787V18.7896ZM18.7632 294.098C11.0947 294.098 4.89474 287.89 4.89474 280.21V243.121C13.3789 266.813 32.1421 285.602 55.8 294.098H18.7632ZM84.0263 294.098C40.4632 294.098 4.89474 258.48 4.89474 214.855V84.1448C4.89474 40.5202 40.4632 4.90164 84.0263 4.90164H132.974C176.537 4.90164 212.105 40.5202 212.105 84.1448V214.855C212.105 258.48 176.537 294.098 132.974 294.098H84.0263ZM212.105 280.21C212.105 287.89 205.905 294.098 198.237 294.098H161.2C184.858 285.602 203.621 266.813 212.105 243.121V280.21ZM161.2 4.90164H198.237C205.905 4.90164 212.105 11.1104 212.105 18.7896V55.8787C203.621 32.1874 184.858 13.3978 161.2 4.90164Z" fill="#282A42"/>
<path d="M37.5263 8.98633H20.0684C13.8684 8.98633 8.97363 14.0514 8.97363 20.0967V37.5792C15.9894 25.8153 25.7789 16.012 37.5263 8.98633Z" fill="#282A42"/>
<path d="M179.637 8.98633H196.932C203.132 8.98633 208.026 14.0514 208.026 20.0967V37.5792C201.174 25.8153 191.384 16.012 179.637 8.98633Z" fill="#282A42"/>
<path d="M179.637 290.831H196.932C203.132 290.831 208.026 285.766 208.026 279.72V262.401C201.174 274.002 191.384 283.805 179.637 290.831Z" fill="#282A42"/>
<path d="M37.5263 290.831H20.0684C13.8684 290.831 8.97363 285.766 8.97363 279.72V262.401C15.9894 274.002 25.7789 283.805 37.5263 290.831Z" fill="#282A42"/>
<path d="M108.5 4.90161H92.6737L100.668 11.7639L108.663 18.6262L116.658 11.7639L124.326 4.90161H108.5ZM108.5 14.7049L98.7106 5.55516L108.663 9.96664L118.616 5.39178L108.5 14.7049Z" fill="#282A42"/>
<path d="M108.5 294.098H124.326L116.332 287.236L108.337 280.374L100.342 287.236L92.3474 294.098H108.5ZM108.5 284.295L118.29 293.445L108.337 289.033L98.3843 293.608L108.5 284.295Z" fill="#282A42"/>
<path d="M212.105 146.232V130.384L205.253 138.39L198.4 146.396L205.253 154.402L212.105 162.408V146.232ZM202.153 146.232L211.289 136.429L206.884 146.396L211.453 156.362L202.153 146.232Z" fill="#282A42"/>
<path d="M4.89478 146.232V162.081L11.7474 154.075L18.6 146.069L11.7474 138.063L4.89478 130.384V146.232ZM14.6842 146.232L5.54741 156.036L9.95267 146.069L5.38425 136.102L14.6842 146.232Z" fill="#282A42"/>
</svg>
